# xmcd
#
# Track frame offsets: 
#        150
#        28612
#        47957
#        60165
#        78488
#        95494
#        110012
#        124698
#        143951
#        163583
#        177319
#        197067
#        210391
#
# Disc length: 3213 seconds
#
# Revision: 1
# Processed by: cddbd v1.5.2PL0 Copyright (c) Steve Scherf et al.
# Submitted via: ExactAudioCopy v0.95b4
#
DISCID=b10c8b0d
DTITLE=Heartworn - Heartworn
DYEAR=2006
DGENRE=Country
TTITLE0=Motel Room Scene
TTITLE1=Hazard
TTITLE2=Baton Rouge
TTITLE3=Blue
TTITLE4=Holdin' On
TTITLE5=If I Needed You
TTITLE6=Heartworn Highways
TTITLE7=Tecumseh Valley
TTITLE8=A Song For You
TTITLE9=I'm So Lonesome I Could Cry
TTITLE10=L.A. Freeway
TTITLE11=One Day In November
TTITLE12=Nebraska
EXTD=
EXTT0=
EXTT1=
EXTT2=
EXTT3=
EXTT4=
EXTT5=
EXTT6=
EXTT7=
EXTT8=
EXTT9=
EXTT10=
EXTT11=
EXTT12=
PLAYORDER=
